<mxfile host="Electron" agent="Mozilla/5.0 (Windows NT 10.0; Win64; x64) AppleWebKit/537.36 (KHTML, like Gecko) draw.io/28.1.2 Chrome/138.0.7204.243 Electron/37.4.0 Safari/537.36" version="28.1.2">
  <diagram name="หน้า-1" id="UH_BqDTKgXrNHOP2o-ob">
    <mxGraphModel dx="992" dy="596" grid="1" gridSize="10" guides="1" tooltips="1" connect="1" arrows="1" fold="1" page="1" pageScale="1" pageWidth="827" pageHeight="1169" math="0" shadow="0">
      <root>
        <mxCell id="0" />
        <mxCell id="1" parent="0" />
        <mxCell id="6PppUkS6LjqOqkBIOnkH-3" value="Start" style="ellipse;whiteSpace=wrap;" vertex="1" parent="1">
          <mxGeometry x="254" y="50" width="80" height="40" as="geometry" />
        </mxCell>
        <mxCell id="6PppUkS6LjqOqkBIOnkH-4" value="ประกาศตัวแปร num1, num2, ptr1, ptr2" style="rounded=0;whiteSpace=wrap;" vertex="1" parent="1">
          <mxGeometry x="194" y="110" width="200" height="60" as="geometry" />
        </mxCell>
        <mxCell id="6PppUkS6LjqOqkBIOnkH-5" value="Input num1" style="parallelogram;whiteSpace=wrap;" vertex="1" parent="1">
          <mxGeometry x="194" y="190" width="200" height="40" as="geometry" />
        </mxCell>
        <mxCell id="6PppUkS6LjqOqkBIOnkH-6" value="Input num2" style="parallelogram;whiteSpace=wrap;" vertex="1" parent="1">
          <mxGeometry x="194" y="250" width="200" height="40" as="geometry" />
        </mxCell>
        <mxCell id="6PppUkS6LjqOqkBIOnkH-7" value="แสดงผล Before swap" style="parallelogram;whiteSpace=wrap;" vertex="1" parent="1">
          <mxGeometry x="194" y="310" width="200" height="40" as="geometry" />
        </mxCell>
        <mxCell id="6PppUkS6LjqOqkBIOnkH-8" value="เรียกใช้ฟังก์ชัน swapNumbers(ptr1, ptr2)" style="rectangle;whiteSpace=wrap;" vertex="1" parent="1">
          <mxGeometry x="194" y="370" width="200" height="40" as="geometry" />
        </mxCell>
        <mxCell id="6PppUkS6LjqOqkBIOnkH-9" value="แสดงผล After swap" style="parallelogram;whiteSpace=wrap;" vertex="1" parent="1">
          <mxGeometry x="194" y="430" width="200" height="40" as="geometry" />
        </mxCell>
        <mxCell id="6PppUkS6LjqOqkBIOnkH-10" value="Stop" style="ellipse;whiteSpace=wrap;" vertex="1" parent="1">
          <mxGeometry x="254" y="490" width="80" height="40" as="geometry" />
        </mxCell>
        <mxCell id="6PppUkS6LjqOqkBIOnkH-11" style="edgeStyle=orthogonalEdgeStyle;" edge="1" parent="1" source="6PppUkS6LjqOqkBIOnkH-3" target="6PppUkS6LjqOqkBIOnkH-4">
          <mxGeometry relative="1" as="geometry" />
        </mxCell>
        <mxCell id="6PppUkS6LjqOqkBIOnkH-12" style="edgeStyle=orthogonalEdgeStyle;" edge="1" parent="1" source="6PppUkS6LjqOqkBIOnkH-4" target="6PppUkS6LjqOqkBIOnkH-5">
          <mxGeometry relative="1" as="geometry" />
        </mxCell>
        <mxCell id="6PppUkS6LjqOqkBIOnkH-13" style="edgeStyle=orthogonalEdgeStyle;" edge="1" parent="1" source="6PppUkS6LjqOqkBIOnkH-5" target="6PppUkS6LjqOqkBIOnkH-6">
          <mxGeometry relative="1" as="geometry" />
        </mxCell>
        <mxCell id="6PppUkS6LjqOqkBIOnkH-14" style="edgeStyle=orthogonalEdgeStyle;" edge="1" parent="1" source="6PppUkS6LjqOqkBIOnkH-6" target="6PppUkS6LjqOqkBIOnkH-7">
          <mxGeometry relative="1" as="geometry" />
        </mxCell>
        <mxCell id="6PppUkS6LjqOqkBIOnkH-15" style="edgeStyle=orthogonalEdgeStyle;" edge="1" parent="1" source="6PppUkS6LjqOqkBIOnkH-7" target="6PppUkS6LjqOqkBIOnkH-8">
          <mxGeometry relative="1" as="geometry" />
        </mxCell>
        <mxCell id="6PppUkS6LjqOqkBIOnkH-16" style="edgeStyle=orthogonalEdgeStyle;" edge="1" parent="1" source="6PppUkS6LjqOqkBIOnkH-8" target="6PppUkS6LjqOqkBIOnkH-9">
          <mxGeometry relative="1" as="geometry" />
        </mxCell>
        <mxCell id="6PppUkS6LjqOqkBIOnkH-17" style="edgeStyle=orthogonalEdgeStyle;" edge="1" parent="1" source="6PppUkS6LjqOqkBIOnkH-9" target="6PppUkS6LjqOqkBIOnkH-10">
          <mxGeometry relative="1" as="geometry" />
        </mxCell>
        <mxCell id="6PppUkS6LjqOqkBIOnkH-18" value="Start swapNumbers" style="ellipse;whiteSpace=wrap;" vertex="1" parent="1">
          <mxGeometry x="514" y="110" width="100" height="40" as="geometry" />
        </mxCell>
        <mxCell id="6PppUkS6LjqOqkBIOnkH-19" value="ประกาศ array[2] = {a, b}" style="rectangle;whiteSpace=wrap;" vertex="1" parent="1">
          <mxGeometry x="494" y="170" width="140" height="40" as="geometry" />
        </mxCell>
        <mxCell id="6PppUkS6LjqOqkBIOnkH-20" value="for i=0 ถึง 0" style="diamond;whiteSpace=wrap;" vertex="1" parent="1">
          <mxGeometry x="494" y="230" width="140" height="60" as="geometry" />
        </mxCell>
        <mxCell id="6PppUkS6LjqOqkBIOnkH-21" value="temp = *arr[i]" style="rectangle;whiteSpace=wrap;" vertex="1" parent="1">
          <mxGeometry x="494" y="310" width="140" height="40" as="geometry" />
        </mxCell>
        <mxCell id="6PppUkS6LjqOqkBIOnkH-22" value="*arr[i] = *arr[i+1]" style="rectangle;whiteSpace=wrap;" vertex="1" parent="1">
          <mxGeometry x="494" y="370" width="140" height="40" as="geometry" />
        </mxCell>
        <mxCell id="6PppUkS6LjqOqkBIOnkH-23" value="*arr[i+1] = temp" style="rectangle;whiteSpace=wrap;" vertex="1" parent="1">
          <mxGeometry x="494" y="430" width="140" height="40" as="geometry" />
        </mxCell>
        <mxCell id="6PppUkS6LjqOqkBIOnkH-24" value="Stop swapNumbers" style="ellipse;whiteSpace=wrap;" vertex="1" parent="1">
          <mxGeometry x="514" y="490" width="100" height="40" as="geometry" />
        </mxCell>
        <mxCell id="6PppUkS6LjqOqkBIOnkH-25" style="edgeStyle=orthogonalEdgeStyle;" edge="1" parent="1" source="6PppUkS6LjqOqkBIOnkH-18" target="6PppUkS6LjqOqkBIOnkH-19">
          <mxGeometry relative="1" as="geometry" />
        </mxCell>
        <mxCell id="6PppUkS6LjqOqkBIOnkH-26" style="edgeStyle=orthogonalEdgeStyle;" edge="1" parent="1" source="6PppUkS6LjqOqkBIOnkH-19" target="6PppUkS6LjqOqkBIOnkH-20">
          <mxGeometry relative="1" as="geometry" />
        </mxCell>
        <mxCell id="6PppUkS6LjqOqkBIOnkH-27" style="edgeStyle=orthogonalEdgeStyle;" edge="1" parent="1" source="6PppUkS6LjqOqkBIOnkH-20" target="6PppUkS6LjqOqkBIOnkH-21">
          <mxGeometry relative="1" as="geometry" />
        </mxCell>
        <mxCell id="6PppUkS6LjqOqkBIOnkH-28" style="edgeStyle=orthogonalEdgeStyle;" edge="1" parent="1" source="6PppUkS6LjqOqkBIOnkH-21" target="6PppUkS6LjqOqkBIOnkH-22">
          <mxGeometry relative="1" as="geometry" />
        </mxCell>
        <mxCell id="6PppUkS6LjqOqkBIOnkH-29" style="edgeStyle=orthogonalEdgeStyle;" edge="1" parent="1" source="6PppUkS6LjqOqkBIOnkH-22" target="6PppUkS6LjqOqkBIOnkH-23">
          <mxGeometry relative="1" as="geometry" />
        </mxCell>
        <mxCell id="6PppUkS6LjqOqkBIOnkH-30" style="edgeStyle=orthogonalEdgeStyle;" edge="1" parent="1" source="6PppUkS6LjqOqkBIOnkH-23" target="6PppUkS6LjqOqkBIOnkH-24">
          <mxGeometry relative="1" as="geometry" />
        </mxCell>
      </root>
    </mxGraphModel>
  </diagram>
</mxfile>
